<svg xmlns="http://www.w3.org/2000/svg" viewBox="0 0 240 240" shape-rendering="crispEdges">
  <defs>
    <radialGradient id="lglow" cx="50%" cy="50%" r="50%">
      <stop offset="0%" stop-color="#c6ff3a" stop-opacity=".8"/>
      <stop offset="45%" stop-color="#9bdb2d" stop-opacity=".3"/>
      <stop offset="100%" stop-color="#9bdb2d" stop-opacity="0"/>
    </radialGradient>
  </defs>

  <!-- ground -->
  <rect x="0" y="210" width="240" height="30" fill="#14210f"/>
  <g fill="#1d3018">
    <rect x="6" y="216" width="20" height="9"/><rect x="34" y="224" width="22" height="9"/>
    <rect x="64" y="216" width="20" height="9"/><rect x="92" y="226" width="22" height="9"/>
    <rect x="122" y="218" width="20" height="9"/><rect x="150" y="226" width="22" height="9"/>
    <rect x="182" y="216" width="20" height="9"/><rect x="210" y="224" width="24" height="9"/>
  </g>

  <!-- posts -->
  <g>
    <rect x="22" y="42" width="18" height="6" fill="#2e1d0d"/>
    <rect x="24" y="46" width="14" height="166" fill="#5a3d20"/>
    <rect x="24" y="46" width="4" height="166" fill="#6f4e2a"/>
    <rect x="33" y="46" width="3" height="166" fill="#3a2614"/>
    <rect x="200" y="42" width="18" height="6" fill="#2e1d0d"/>
    <rect x="202" y="46" width="14" height="166" fill="#5a3d20"/>
    <rect x="202" y="46" width="4" height="166" fill="#6f4e2a"/>
    <rect x="211" y="46" width="3" height="166" fill="#3a2614"/>
  </g>

  <!-- top beam -->
  <rect x="16" y="36" width="208" height="13" fill="#5a3d20"/>
  <rect x="16" y="36" width="208" height="3" fill="#6f4e2a"/>
  <rect x="16" y="46" width="208" height="3" fill="#3a2614"/>

  <!-- awning backing -->
  <rect x="14" y="50" width="212" height="42" fill="#33205f"/>
  <!-- awning ridge highlight -->
  <rect x="14" y="50" width="212" height="7" fill="#7c4dff"/>
  <rect x="14" y="57" width="212" height="3" fill="#5b3a9c"/>
  <!-- scalloped fold panels -->
  <g>
    <polygon points="16,57 42,57 42,86 29,98 16,86" fill="#6a3fb5"/>
    <polygon points="42,57 68,57 68,86 55,98 42,86" fill="#583594"/>
    <polygon points="68,57 94,57 94,86 81,98 68,86" fill="#6a3fb5"/>
    <polygon points="94,57 120,57 120,86 107,98 94,86" fill="#583594"/>
    <polygon points="120,57 146,57 146,86 133,98 120,86" fill="#6a3fb5"/>
    <polygon points="146,57 172,57 172,86 159,98 146,86" fill="#583594"/>
    <polygon points="172,57 198,57 198,86 185,98 172,86" fill="#6a3fb5"/>
    <polygon points="198,57 224,57 224,86 211,98 198,86" fill="#583594"/>
  </g>
  <!-- tassels -->
  <g fill="#ffce4a">
    <rect x="27" y="98" width="4" height="7"/><rect x="53" y="98" width="4" height="7"/>
    <rect x="79" y="98" width="4" height="7"/><rect x="105" y="98" width="4" height="7"/>
    <rect x="131" y="98" width="4" height="7"/><rect x="157" y="98" width="4" height="7"/>
    <rect x="183" y="98" width="4" height="7"/><rect x="209" y="98" width="4" height="7"/>
  </g>

  <!-- lanterns -->
  <g>
    <circle cx="55" cy="120" r="20" fill="url(#lglow)"/>
    <rect x="54" y="92" width="2" height="14" fill="#2a1a0a"/>
    <rect x="48" y="106" width="14" height="3" fill="#3a2614"/>
    <rect x="49" y="109" width="12" height="18" fill="#2a1a0a"/>
    <rect x="51" y="112" width="8" height="12" fill="#9bdb2d"/>
    <rect x="53" y="114" width="4" height="6" fill="#e6ffa6"/>
    <rect x="49" y="127" width="12" height="3" fill="#3a2614"/>

    <circle cx="185" cy="120" r="20" fill="url(#lglow)"/>
    <rect x="184" y="92" width="2" height="14" fill="#2a1a0a"/>
    <rect x="178" y="106" width="14" height="3" fill="#3a2614"/>
    <rect x="179" y="109" width="12" height="18" fill="#2a1a0a"/>
    <rect x="181" y="112" width="8" height="12" fill="#9bdb2d"/>
    <rect x="183" y="114" width="4" height="6" fill="#e6ffa6"/>
    <rect x="179" y="127" width="12" height="3" fill="#3a2614"/>
  </g>

  <!-- sign chains -->
  <rect x="92" y="98" width="2" height="20" fill="#2a1a0a"/>
  <rect x="148" y="98" width="2" height="20" fill="#2a1a0a"/>
  <!-- sign board -->
  <rect x="68" y="116" width="104" height="46" fill="#4a3119"/>
  <rect x="68" y="116" width="104" height="4" fill="#5f4022"/>
  <rect x="72" y="121" width="96" height="36" fill="#0b0f0b"/>
  <rect x="72" y="121" width="96" height="3" fill="#05080a"/>

  <!-- barrel (left) -->
  <g>
    <rect x="20" y="166" width="42" height="44" fill="#5a3d20"/>
    <rect x="20" y="166" width="42" height="5" fill="#6f4e2a"/>
    <rect x="20" y="172" width="42" height="4" fill="#3a2614"/>
    <rect x="20" y="200" width="42" height="4" fill="#3a2614"/>
    <rect x="27" y="171" width="3" height="34" fill="#6f4e2a"/>
    <rect x="39" y="171" width="3" height="34" fill="#6f4e2a"/>
    <rect x="51" y="171" width="3" height="34" fill="#6f4e2a"/>
    <rect x="20" y="206" width="42" height="4" fill="#2a1a0a"/>
  </g>
  <!-- crate (right) -->
  <g>
    <rect x="180" y="170" width="42" height="40" fill="#5a3d20"/>
    <rect x="180" y="170" width="42" height="40" fill="#5a3d20"/>
    <rect x="180" y="170" width="42" height="5" fill="#6f4e2a"/>
    <rect x="180" y="170" width="5" height="40" fill="#6f4e2a"/>
    <polygon points="183,173 219,207 215,207 179,173" fill="#3a2614"/>
    <polygon points="219,173 183,207 187,207 223,173" fill="#3a2614"/>
    <rect x="180" y="206" width="42" height="4" fill="#2a1a0a"/>
  </g>
  <!-- sacks (center base) -->
  <g>
    <path d="M88 210 q-4 -26 18 -26 q22 0 18 26 z" fill="#4a2f7a"/>
    <path d="M88 210 q-4 -26 18 -26 q4 0 8 4 q-14 6 -10 22 z" fill="#5b3a9c"/>
    <rect x="100" y="182" width="12" height="4" fill="#6a4caf"/>
    <path d="M120 210 q-3 -22 16 -22 q19 0 16 22 z" fill="#3f2a66"/>
    <path d="M120 210 q-3 -22 16 -22 q3 0 6 3 q-12 5 -9 19 z" fill="#4a2f7a"/>
    <rect x="130" y="186" width="10" height="3" fill="#6a4caf"/>
  </g>
</svg>
